
            <svg id="trend-chart" width="660" height="400" title="Stack Overflow Trends Chart" version="1.1" xmlns="http://www.w3.org/2000/svg"><g></g><g class="chart-area" transform="translate(100, 20)"><g transform="translate(0,300)" fill="none" font-size="10" font-family="sans-serif" text-anchor="middle"><path class="domain" stroke="#000" d="M0.5,6V0.5H410.5V6"></path><g class="tick" opacity="1" transform="translate(15.3825404610103,0)"><line stroke="#000" y2="6" x1="0.5" x2="0.5"></line><text fill="#000" y="9" x="0.5" dy="0.71em" style="font-size: 12px;">2009</text></g><g class="tick" opacity="1" transform="translate(52.079450711132914,0)"><line stroke="#000" y2="6" x1="0.5" x2="0.5"></line><text fill="#000" y="9" x="0.5" dy="0.71em" style="font-size: 12px;">2010</text></g><g class="tick" opacity="1" transform="translate(88.77636096125552,0)"><line stroke="#000" y2="6" x1="0.5" x2="0.5"></line><text fill="#000" y="9" x="0.5" dy="0.71em" style="font-size: 12px;">2011</text></g><g class="tick" opacity="1" transform="translate(125.47327121137812,0)"><line stroke="#000" y2="6" x1="0.5" x2="0.5"></line><text fill="#000" y="9" x="0.5" dy="0.71em" style="font-size: 12px;">2012</text></g><g class="tick" opacity="1" transform="translate(162.27072094163807,0)"><line stroke="#000" y2="6" x1="0.5" x2="0.5"></line><text fill="#000" y="9" x="0.5" dy="0.71em" style="font-size: 12px;">2013</text></g><g class="tick" opacity="1" transform="translate(198.9676311917607,0)"><line stroke="#000" y2="6" x1="0.5" x2="0.5"></line><text fill="#000" y="9" x="0.5" dy="0.71em" style="font-size: 12px;">2014</text></g><g class="tick" opacity="1" transform="translate(235.66454144188327,0)"><line stroke="#000" y2="6" x1="0.5" x2="0.5"></line><text fill="#000" y="9" x="0.5" dy="0.71em" style="font-size: 12px;">2015</text></g><g class="tick" opacity="1" transform="translate(272.36145169200586,0)"><line stroke="#000" y2="6" x1="0.5" x2="0.5"></line><text fill="#000" y="9" x="0.5" dy="0.71em" style="font-size: 12px;">2016</text></g><g class="tick" opacity="1" transform="translate(309.15890142226584,0)"><line stroke="#000" y2="6" x1="0.5" x2="0.5"></line><text fill="#000" y="9" x="0.5" dy="0.71em" style="font-size: 12px;">2017</text></g><g class="tick" opacity="1" transform="translate(345.8558116723884,0)"><line stroke="#000" y2="6" x1="0.5" x2="0.5"></line><text fill="#000" y="9" x="0.5" dy="0.71em" style="font-size: 12px;">2018</text></g><g class="tick" opacity="1" transform="translate(382.55272192251107,0)"><line stroke="#000" y2="6" x1="0.5" x2="0.5"></line><text fill="#000" y="9" x="0.5" dy="0.71em" style="font-size: 12px;">2019</text></g></g><g class="grid-lines" transform="translate(0,300)" fill="none" font-size="10" font-family="sans-serif" text-anchor="middle"><path class="domain" stroke="#000" d="M0.5,-300V0.5H410.5V-300"></path><g class="tick" opacity="1" transform="translate(15.3825404610103,0)"><line stroke="#000" y2="-300" x1="0.5" x2="0.5" style="stroke: #ccc; fill: none;"></line></g><g class="tick" opacity="1" transform="translate(52.079450711132914,0)"><line stroke="#000" y2="-300" x1="0.5" x2="0.5" style="stroke: #ccc; fill: none;"></line></g><g class="tick" opacity="1" transform="translate(88.77636096125552,0)"><line stroke="#000" y2="-300" x1="0.5" x2="0.5" style="stroke: #ccc; fill: none;"></line></g><g class="tick" opacity="1" transform="translate(125.47327121137812,0)"><line stroke="#000" y2="-300" x1="0.5" x2="0.5" style="stroke: #ccc; fill: none;"></line></g><g class="tick" opacity="1" transform="translate(162.27072094163807,0)"><line stroke="#000" y2="-300" x1="0.5" x2="0.5" style="stroke: #ccc; fill: none;"></line></g><g class="tick" opacity="1" transform="translate(198.9676311917607,0)"><line stroke="#000" y2="-300" x1="0.5" x2="0.5" style="stroke: #ccc; fill: none;"></line></g><g class="tick" opacity="1" transform="translate(235.66454144188327,0)"><line stroke="#000" y2="-300" x1="0.5" x2="0.5" style="stroke: #ccc; fill: none;"></line></g><g class="tick" opacity="1" transform="translate(272.36145169200586,0)"><line stroke="#000" y2="-300" x1="0.5" x2="0.5" style="stroke: #ccc; fill: none;"></line></g><g class="tick" opacity="1" transform="translate(309.15890142226584,0)"><line stroke="#000" y2="-300" x1="0.5" x2="0.5" style="stroke: #ccc; fill: none;"></line></g><g class="tick" opacity="1" transform="translate(345.8558116723884,0)"><line stroke="#000" y2="-300" x1="0.5" x2="0.5" style="stroke: #ccc; fill: none;"></line></g><g class="tick" opacity="1" transform="translate(382.55272192251107,0)"><line stroke="#000" y2="-300" x1="0.5" x2="0.5" style="stroke: #ccc; fill: none;"></line></g></g><text x="205" y="360" class="axis-label x-axis-label" style="text-anchor: middle; font-weight: bold;">Year</text><g fill="none" font-size="10" font-family="sans-serif" text-anchor="end"><path class="domain" stroke="#000" d="M-6,300.5H0.5V0.5H-6"></path><g class="tick" opacity="1" transform="translate(0,300)"><line stroke="#000" x2="-6" y1="0.5" y2="0.5"></line><text fill="#000" x="-9" y="0.5" dy="0.32em" style="font-size: 12px;">0.00%</text></g><g class="tick" opacity="1" transform="translate(0,270)"><line stroke="#000" x2="-6" y1="0.5" y2="0.5"></line><text fill="#000" x="-9" y="0.5" dy="0.32em" style="font-size: 12px;">0.20%</text></g><g class="tick" opacity="1" transform="translate(0,240)"><line stroke="#000" x2="-6" y1="0.5" y2="0.5"></line><text fill="#000" x="-9" y="0.5" dy="0.32em" style="font-size: 12px;">0.40%</text></g><g class="tick" opacity="1" transform="translate(0,210)"><line stroke="#000" x2="-6" y1="0.5" y2="0.5"></line><text fill="#000" x="-9" y="0.5" dy="0.32em" style="font-size: 12px;">0.60%</text></g><g class="tick" opacity="1" transform="translate(0,180)"><line stroke="#000" x2="-6" y1="0.5" y2="0.5"></line><text fill="#000" x="-9" y="0.5" dy="0.32em" style="font-size: 12px;">0.80%</text></g><g class="tick" opacity="1" transform="translate(0,150)"><line stroke="#000" x2="-6" y1="0.5" y2="0.5"></line><text fill="#000" x="-9" y="0.5" dy="0.32em" style="font-size: 12px;">1.00%</text></g><g class="tick" opacity="1" transform="translate(0,120)"><line stroke="#000" x2="-6" y1="0.5" y2="0.5"></line><text fill="#000" x="-9" y="0.5" dy="0.32em" style="font-size: 12px;">1.20%</text></g><g class="tick" opacity="1" transform="translate(0,90)"><line stroke="#000" x2="-6" y1="0.5" y2="0.5"></line><text fill="#000" x="-9" y="0.5" dy="0.32em" style="font-size: 12px;">1.40%</text></g><g class="tick" opacity="1" transform="translate(0,60)"><line stroke="#000" x2="-6" y1="0.5" y2="0.5"></line><text fill="#000" x="-9" y="0.5" dy="0.32em" style="font-size: 12px;">1.60%</text></g><g class="tick" opacity="1" transform="translate(0,30)"><line stroke="#000" x2="-6" y1="0.5" y2="0.5"></line><text fill="#000" x="-9" y="0.5" dy="0.32em" style="font-size: 12px;">1.80%</text></g><g class="tick" opacity="1" transform="translate(0,0)"><line stroke="#000" x2="-6" y1="0.5" y2="0.5"></line><text fill="#000" x="-9" y="0.5" dy="0.32em" style="font-size: 12px;">2.00%</text></g></g><g class="grid-lines" fill="none" font-size="10" font-family="sans-serif" text-anchor="end"><path class="domain" stroke="#000" d="M410,300.5H0.5V0.5H410"></path><g class="tick" opacity="1" transform="translate(0,300)"><line stroke="#000" x2="410" y1="0.5" y2="0.5" style="stroke: #ccc; fill: none;"></line></g><g class="tick" opacity="1" transform="translate(0,270)"><line stroke="#000" x2="410" y1="0.5" y2="0.5" style="stroke: #ccc; fill: none;"></line></g><g class="tick" opacity="1" transform="translate(0,240)"><line stroke="#000" x2="410" y1="0.5" y2="0.5" style="stroke: #ccc; fill: none;"></line></g><g class="tick" opacity="1" transform="translate(0,210)"><line stroke="#000" x2="410" y1="0.5" y2="0.5" style="stroke: #ccc; fill: none;"></line></g><g class="tick" opacity="1" transform="translate(0,180)"><line stroke="#000" x2="410" y1="0.5" y2="0.5" style="stroke: #ccc; fill: none;"></line></g><g class="tick" opacity="1" transform="translate(0,150)"><line stroke="#000" x2="410" y1="0.5" y2="0.5" style="stroke: #ccc; fill: none;"></line></g><g class="tick" opacity="1" transform="translate(0,120)"><line stroke="#000" x2="410" y1="0.5" y2="0.5" style="stroke: #ccc; fill: none;"></line></g><g class="tick" opacity="1" transform="translate(0,90)"><line stroke="#000" x2="410" y1="0.5" y2="0.5" style="stroke: #ccc; fill: none;"></line></g><g class="tick" opacity="1" transform="translate(0,60)"><line stroke="#000" x2="410" y1="0.5" y2="0.5" style="stroke: #ccc; fill: none;"></line></g><g class="tick" opacity="1" transform="translate(0,30)"><line stroke="#000" x2="410" y1="0.5" y2="0.5" style="stroke: #ccc; fill: none;"></line></g><g class="tick" opacity="1" transform="translate(0,0)"><line stroke="#000" x2="410" y1="0.5" y2="0.5" style="stroke: #ccc; fill: none;"></line></g></g><g class="lines"><path class="line" d="M3.116723884256989,300L6.132908288376655,300L9.249632172633644,300L12.26581657675331,300L15.3825404610103,300L18.49926434526729,300L21.31436978911231,300L24.431093673369297,300L27.447278077488964,300L30.564001961745955,300L33.58018636586562,300L36.696910250122606,300L39.8136341343796,300L42.82981853849927,300L45.94654242275625,300L48.962726826875915,300L52.079450711132914,300L55.1961745953899,300L58.01128003923491,300L61.12800392349191,300L64.14418832761157,300L67.26091221186857,300L70.27709661598823,300L73.39382050024521,300L76.51054438450221,300L79.52672878862187,300L82.64345267287885,300L85.65963707699854,300L88.77636096125552,300L91.8930848455125,300L94.70819028935753,300L97.82491417361452,300L100.84109857773419,300L103.95782246199119,300L106.97400686611083,300L110.09073075036781,299.720615763L113.20745463462482,299.85326629245L116.22363903874448,300L119.34036292300148,300L122.35654732712113,300L125.47327121137812,299.8712799918L128.58999509563512,300L131.50564001961746,299.88838538295L134.62236390387446,300L137.6385483079941,299.7776905008L140.7552721922511,298.51326623985L143.77145659637077,298.94530343625L146.88818048062777,297.77260802865L150.00490436488474,296.13949298685L153.02108876900442,296.69292285495L156.1378126532614,293.50486796625L159.15399705738108,291.5661759267L162.27072094163807,281.17799155875L165.38744482589505,282.9013329189L168.20255026974007,282.03706038075L171.31927415399707,280.2079760985L174.33545855811673,267.4928160921L177.45218244237373,243.99355249005L180.46836684649338,259.68288385965L183.58509073075038,259.15804545435L186.70181461500735,257.70880524375L189.71799901912703,266.5510205187L192.834722903384,269.8819031244L195.85090730750366,262.64944742895L198.9676311917607,256.11185930445L202.08435507601766,250.95541401284999L204.89946051986269,242.0782746762L208.01618440411966,232.9372903491L211.03236880823934,230.98692651615L214.14909269249634,227.7591235509L217.165277096616,227.00380874159998L220.28200098087297,216.947674596L223.39872486512996,216.31887104039998L226.41490926924965,214.36043088225L229.53163315350662,207.5444008506L232.54781755762627,204.32542843200002L235.66454144188327,201.32588638185L238.78126532614024,195.36377368364998L241.59637076998527,208.90784299260002L244.71309465424227,204.0405373308L247.72927905836195,210.62658535275L250.84600294261895,209.9224020693L253.8621873467386,198.02091878595002L256.9789112309956,194.3352652254L260.09563511525255,202.00223221845L263.11181951937226,194.3769937116L266.22854340362926,194.69302341284998L269.2447278077489,172.66405405095L272.36145169200586,172.81940521694997L275.47817557626286,176.46231541275L278.3938205002452,167.75621145075L281.5105443845022,167.75172836055L284.5267287886219,142.72128749099997L287.6434526728788,156.3154195296L290.65963707699854,160.0894109895L293.77636096125553,150.16602102945L296.89308484551253,157.51561171545L299.9092692496322,150.43887327180002L303.02599313388913,140.0654551719L306.04217753800884,131.063481432L309.15890142226584,123.06930354900001L312.2756253065228,128.8678508238L315.0907307503678,127.74804281835L318.2074546346248,128.9137218237L321.22363903874447,124.7336480109L324.34036292300146,127.04517876810002L327.3565473271212,125.52867554054998L330.4732712113781,116.04487983075L333.5899950956351,116.81081316015002L336.6061794997548,108.1507817724L339.7229033840118,111.57978748754999L342.7390877881314,101.23858289520001L345.8558116723884,84.35828541299998L348.9725355566454,81.52227519329998L351.78764100049045,93.58359151169998L354.90436488474745,85.02385525755003L357.9205492888671,90.88926144255001L361.03727317312405,86.28211152884998L364.05345757724376,79.13587265505001L367.17018146150076,67.35541916055001L370.28690534575776,65.2168461528L373.3030897498774,76.09977011790002L376.41981363413436,90.56491647210001L379.43599803825407,80.0084447202L382.55272192251107,79.55747815170002L385.669445806768,91.6381612998L388.48455125061304,87.57677785799999L391.60127513487004,83.66516445824999L394.6174595389897,81.49602951930001L397.7341834232467,77.05637284350001L400.75036782736635,67.63410297945L403.86709171162335,59.46501538620004L406.98381559588034,46.50382600185L410,69.1832271561" data-legend="laravel" style="stroke: rgb(31, 119, 180); fill: none;"></path><path class="line" d="M3.116723884256989,300L6.132908288376655,298.9623685668L9.249632172633644,300L12.26581657675331,300L15.3825404610103,300L18.49926434526729,300L21.31436978911231,300L24.431093673369297,300L27.447278077488964,300L30.564001961745955,300L33.58018636586562,300L36.696910250122606,300L39.8136341343796,300L42.82981853849927,300L45.94654242275625,299.6068255092L48.962726826875915,300L52.079450711132914,300L55.1961745953899,299.66290619805L58.01128003923491,299.7110884263L61.12800392349191,299.3970334044L64.14418832761157,299.12900416155003L67.26091221186857,299.72943722955L70.27709661598823,299.75204972235L73.39382050024521,299.5264329351L76.51054438450221,300L79.52672878862187,299.527439985L82.64345267287885,300L85.65963707699854,299.35029309015L88.77636096125552,299.0603505519L91.8930848455125,298.3714730328L94.70819028935753,295.6873048134L97.82491417361452,295.14365385225L100.84109857773419,291.78237743295L103.95782246199119,288.96969941175L106.97400686611083,288.6948502068L110.09073075036781,281.4209482302L113.20745463462482,274.6150685736L116.22363903874448,275.3398765518L119.34036292300148,266.75093427135L122.35654732712113,261.18438140325003L125.47327121137812,255.2054371332L128.58999509563512,258.3155967135L131.50564001961746,253.67993392425L134.62236390387446,251.9512797555L137.6385483079941,250.53613640925L140.7552721922511,250.82342177505L143.77145659637077,240.4096441455L146.88818048062777,240.49681447605L150.00490436488474,233.46302618340002L153.02108876900442,245.9844066303L156.1378126532614,244.6898912742L159.15399705738108,252.61522527195L162.27072094163807,245.62530894719998L165.38744482589505,245.59515019635L168.20255026974007,241.6419330072L171.31927415399707,246.72719557785L174.33545855811673,245.7614942529L177.45218244237373,245.12690387295L180.46836684649338,234.52703618385L183.58509073075038,241.11364743315L186.70181461500735,237.73796327535L189.71799901912703,235.37527265250003L192.834722903384,237.72765322064998L195.85090730750366,236.33222999985L198.9676311917607,228.62235601679998L202.08435507601766,238.85350318485L204.89946051986269,237.32941272419998L208.01618440411966,236.39413105275L211.03236880823934,235.05649350285L214.14909269249634,226.2885713586L217.165277096616,229.113525252L220.28200098087297,232.7715207357L223.39872486512996,227.3982885453L226.41490926924965,232.1983997784L229.53163315350662,232.3429872114L232.54781755762627,227.35284293835L235.66454144188327,223.08294162615L238.78126532614024,226.49595014099998L241.59637076998527,230.25756729120002L244.71309465424227,230.563986171L247.72927905836195,230.2984510767L250.84600294261895,227.8419242154L253.8621873467386,229.3990976211L256.9789112309956,224.50151107485L260.09563511525255,230.2431765144L263.11181951937226,232.94673932339998L266.22854340362926,229.6265877615L269.2447278077489,226.3893572733L272.36145169200586,218.17577670720001L275.47817557626286,214.81812951479998L278.3938205002452,231.1525843917L281.5105443845022,230.20230107925L284.5267287886219,233.5262873319L287.6434526728788,233.22508404765L290.65963707699854,235.8388102773L293.77636096125553,236.57996679585L296.89308484551253,237.2892784896L299.9092692496322,239.3322241983L303.02599313388913,235.40608044105L306.04217753800884,231.34628265240002L309.15890142226584,237.23742186705002L312.2756253065228,236.837932857L315.0907307503678,239.03778558885L318.2074546346248,242.37983125125L321.22363903874447,232.91975724884998L324.34036292300146,242.43305020185L327.3565473271212,242.9903612571L330.4732712113781,231.8464147755L333.5899950956351,236.39134996875L336.6061794997548,244.5394258131L339.7229033840118,242.91108781635L342.7390877881314,241.46138942715L345.8558116723884,240.5808201291L348.9725355566454,246.24362978805L351.78764100049045,253.61527172775L354.90436488474745,254.551087428L357.9205492888671,252.4994141295L361.03727317312405,251.5390037595L364.05345757724376,254.23536100065002L367.17018146150076,254.91975143925L370.28690534575776,252.2492651055L373.3030897498774,257.6252607315L376.41981363413436,258.0409505916L379.43599803825407,255.4672965021L382.55272192251107,257.20924794675L385.669445806768,254.31209361269998L388.48455125061304,257.6444391855L391.60127513487004,256.0267707003L394.6174595389897,263.5259909199L397.7341834232467,262.7320946523L400.75036782736635,268.4063911947L403.86709171162335,269.7321293448L406.98381559588034,261.55150966875L410,266.2451269374" data-legend="symfony" style="stroke: rgb(255, 127, 14); fill: none;"></path><path class="line" d="M3.116723884256989,293.54329578885L6.132908288376655,288.5860542336L9.249632172633644,277.32155645745L12.26581657675331,292.48245907125L15.3825404610103,290.46953427795L18.49926434526729,291.39266655195L21.31436978911231,289.64343837855L24.431093673369297,287.94611203035L27.447278077488964,292.3741738689L30.564001961745955,287.6900021409L33.58018636586562,274.7954071632L36.696910250122606,281.0506855647L39.8136341343796,283.9675074819L42.82981853849927,269.6154059604L45.94654242275625,266.5801682787L48.962726826875915,257.5683176772L52.079450711132914,255.30213071055L55.1961745953899,265.6164321993L58.01128003923491,258.10782179939997L61.12800392349191,253.57157213505L64.14418832761157,254.70821639414999L67.26091221186857,252.6515151516L70.27709661598823,251.8976461254L73.39382050024521,255.0111288261L76.51054438450221,254.90092991174998L79.52672878862187,262.6677588054L82.64345267287885,262.352873298L85.65963707699854,251.7051196905L88.77636096125552,246.25205156805L91.8930848455125,252.7727179512L94.70819028935753,247.35537599775L97.82491417361452,247.36347401084998L100.84109857773419,238.44253640670001L103.95782246199119,235.48029655905L106.97400686611083,230.23532561820002L110.09073075036781,227.6394825804L113.20745463462482,244.24119108645L116.22363903874448,233.55056555865002L119.34036292300148,239.40976038690002L122.35654732712113,241.8487200948L125.47327121137812,241.1749562352L128.58999509563512,227.4739572876L131.50564001961746,229.5711766413L134.62236390387446,235.1631726822L137.6385483079941,238.5314234478L140.7552721922511,232.5251601099L143.77145659637077,237.3510241104L146.88818048062777,227.55672778455L150.00490436488474,234.03074780295L153.02108876900442,234.86060168775L156.1378126532614,233.42489665304998L159.15399705738108,225.7601538804L162.27072094163807,221.9552074224L165.38744482589505,223.1531496522L168.20255026974007,224.45251710360003L171.31927415399707,231.03307970880002L174.33545855811673,230.9446839081L177.45218244237373,233.8878359916L180.46836684649338,230.1226453449L183.58509073075038,229.75887989774998L186.70181461500735,235.93064726025L189.71799901912703,240.8147911605L192.834722903384,237.72765322064998L195.85090730750366,236.24179282665L198.9676311917607,240.4262061318L202.08435507601766,245.541401274L204.89946051986269,234.01959984855L208.01618440411966,238.39141679265L211.03236880823934,240.05866959075001L214.14909269249634,246.32484497939998L217.165277096616,252.9955161492L220.28200098087297,243.93053362035L223.39872486512996,243.882299955L226.41490926924965,248.4777111981L229.53163315350662,251.3013267843L232.54781755762627,251.53644562065L235.66454144188327,247.2775092837L238.78126532614024,241.2146009016L241.59637076998527,243.6999862941L244.71309465424227,246.79475337165002L247.72927905836195,240.49867774845L250.84600294261895,241.60155729195L253.8621873467386,243.9345775227L256.9789112309956,237.512776455L260.09563511525255,238.61399533275L263.11181951937226,241.98400189365L266.22854340362926,242.87434042515L269.2447278077489,237.2914074402L272.36145169200586,233.79298886865L275.47817557626286,235.3544716488L278.3938205002452,239.44115611889998L281.5105443845022,242.14138115775L284.5267287886219,239.56935211995L287.6434526728788,239.10977676315L290.65963707699854,243.5926857948L293.77636096125553,244.71499723304998L296.89308484551253,239.6640182943L299.9092692496322,240.79513510425L303.02599313388913,243.5018516925L306.04217753800884,244.64910322245L309.15890142226584,244.23950541390002L312.2756253065228,240.5432110113L315.0907307503678,245.55340309965L318.2074546346248,241.95739599645L321.22363903874447,244.65273095085L324.34036292300146,238.87744447905L327.3565473271212,243.8299730205L330.4732712113781,249.11879654895L333.5899950956351,244.21437574125L336.6061794997548,251.37216855284998L339.7229033840118,256.0442178492L342.7390877881314,251.5292001108L345.8558116723884,254.04665645490002L348.9725355566454,255.12082853865002L351.78764100049045,258.15765566415L354.90436488474745,262.8229754013L357.9205492888671,262.053611667L361.03727317312405,262.50391604025003L364.05345757724376,255.94087549755L367.17018146150076,261.1147116009L370.28690534575776,255.1749118824L373.3030897498774,263.4506129148L376.41981363413436,268.0354881117L379.43599803825407,265.4624143983L382.55272192251107,268.169993862L385.669445806768,266.98334889975L388.48455125061304,269.90738250705L391.60127513487004,269.2271473734L394.6174595389897,271.3479229371L397.7341834232467,270.3184367079L400.75036782736635,263.225718783L403.86709171162335,266.5161680877L406.98381559588034,267.9595913907L410,270.84086082855" data-legend="codeigniter" style="stroke: rgb(44, 160, 44); fill: none;"></path><path class="line" d="M3.116723884256989,277.4015352609L6.132908288376655,282.36026563365L9.249632172633644,294.03198854145L12.26581657675331,294.98830604745L15.3825404610103,290.46953427795L18.49926434526729,289.6711998624L21.31436978911231,285.9446663709L24.431093673369297,273.05601512655L27.447278077488964,274.7761135662L30.564001961745955,255.57696424755L33.58018636586562,250.05756604545L36.696910250122606,257.9417655216L39.8136341343796,259.2316618824L42.82981853849927,265.0369054887L45.94654242275625,261.07572540705L48.962726826875915,267.5757899232L52.079450711132914,261.0153921987L55.1961745953899,264.9422445954L58.01128003923491,266.7751690134L61.12800392349191,268.34425372845L64.14418832761157,253.83722055555L67.26091221186857,259.4155844157L70.27709661598823,243.71528696115L73.39382050024521,258.326098281L76.51054438450221,251.94361384035L79.52672878862187,254.3979585408L82.64345267287885,259.32379413809997L85.65963707699854,259.2850336404L88.77636096125552,257.71577483505L91.8930848455125,257.6582988528L94.70819028935753,261.1857433203L97.82491417361452,248.4600683022L100.84109857773419,251.4413211945L103.95782246199119,256.7853976953L106.97400686611083,244.3667628597L110.09073075036781,245.7994579947L113.20745463462482,249.96380568555L116.22363903874448,254.3713883502L119.34036292300148,251.36293690935L122.35654732712113,258.00986984505L125.47327121137812,257.1362372568L128.58999509563512,254.3399166312L131.50564001961746,253.90316315835L134.62236390387446,251.25659946285L137.6385483079941,253.6484693991L140.7552721922511,259.8581884722L143.77145659637077,251.80036703445L146.88818048062777,244.3152007128L150.00490436488474,256.39897961505L153.02108876900442,263.3215080273L156.1378126532614,264.0738009378L159.15399705738108,265.0440186432L162.27072094163807,258.6486178182L165.38744482589505,254.24163525435L168.20255026974007,263.73033244335L171.31927415399707,264.9498078924L174.33545855811673,257.97413793105L177.45218244237373,259.860471852L180.46836684649338,259.0052852691L183.58509073075038,261.35858179845L186.70181461500735,259.78721866125L189.71799901912703,264.52134943365L192.834722903384,265.47023823L195.85090730750366,264.09644220165L198.9676311917607,262.291056009L202.08435507601766,262.7388535032L204.89946051986269,264.3115829061L208.01618440411966,264.5865874581L211.03236880823934,269.3086823082L214.14909269249634,267.09639469635L217.165277096616,267.67914306135L220.28200098087297,272.65127170065L223.39872486512996,271.98618826004997L226.41490926924965,272.81008624574997L229.53163315350662,272.4160651713L232.54781755762627,275.0456052003L235.66454144188327,272.465137554L238.78126532614024,272.52518524695L241.59637076998527,277.3060338012L244.71309465424227,274.2682959015L247.72927905836195,273.8517998814L250.84600294261895,275.0406655824L253.8621873467386,273.4669811322L256.9789112309956,274.8062122578L260.09563511525255,278.523353739L263.11181951937226,275.8737365316L266.22854340362926,280.50808366065L269.2447278077489,276.800437245L272.36145169200586,279.3155009139L275.47817557626286,278.90430224385L278.3938205002452,282.7508101893L281.5105443845022,280.63726115475L284.5267287886219,283.8586558953L287.6434526728788,279.56703918224997L290.65963707699854,281.93602626675L293.77636096125553,280.2434975097L296.89308484551253,284.60816793225L299.9092692496322,286.05931960304997L303.02599313388913,283.80845749725L306.04217753800884,286.4180992782L309.15890142226584,287.53287563625L312.2756253065228,286.1267492361L315.0907307503678,285.47092187265L318.2074546346248,283.86297326835L321.22363903874447,283.4929197573L324.34036292300146,286.62414989985L327.3565473271212,287.4897847236L330.4732712113781,289.1941256886L333.5899950956351,287.3341487493L336.6061794997548,289.79525434965L339.7229033840118,287.1348930291L342.7390877881314,290.1397730418L345.8558116723884,288.41749742625L348.9725355566454,290.72825908275L351.78764100049045,290.4784644414L354.90436488474745,292.4716525188L357.9205492888671,291.2570079138L361.03727317312405,289.3287907269L364.05345757724376,291.75667993185L367.17018146150076,291.32705577375L370.28690534575776,290.9095975146L373.3030897498774,291.35592901845L376.41981363413436,294.59754728655L379.43599803825407,293.27061369375L382.55272192251107,292.0205769738L385.669445806768,294.3782458938L388.48455125061304,294.5946236676L391.60127513487004,293.5259299119L394.6174595389897,293.45338298565L397.7341834232467,293.8360970799L400.75036782736635,294.4796113647L403.86709171162335,295.2706452102L406.98381559588034,294.72275622915L410,294.1364774493" data-legend="cakephp" style="stroke: rgb(214, 39, 40); fill: none;"></path><path class="line" d="M3.116723884256989,288.1627089462L6.132908288376655,289.62368566695L9.249632172633644,282.09596562435L12.26581657675331,254.89475442705L15.3825404610103,266.64336997275L18.49926434526729,267.29213289735003L21.31436978911231,252.65571830160002L24.431093673369297,253.2025525881L27.447278077488964,253.07183919285L30.564001961745955,248.08392207240001L33.58018636586562,247.25705573025L36.696910250122606,229.748883069L39.8136341343796,239.0765284311L42.82981853849927,235.06853876475L45.94654242275625,246.92144373675L48.962726826875915,218.33902647315L52.079450711132914,242.5313109135L55.1961745953899,227.52483257685L58.01128003923491,223.72734451755L61.12800392349191,250.55673915674998L64.14418832761157,247.7402496855L67.26091221186857,243.9935064936L70.27709661598823,239.00423168475L73.39382050024521,227.3074555242L76.51054438450221,228.03864226335L79.52672878862187,230.53367777715L82.64345267287885,232.49480729295L85.65963707699854,234.37960209074998L88.77636096125552,237.795206535L91.8930848455125,236.30650083839998L94.70819028935753,233.0788677936L97.82491417361452,245.01362910059999L100.84109857773419,240.6837061977L103.95782246199119,246.35949713924998L106.97400686611083,246.15178651125L110.09073075036781,249.571145196L113.20745463462482,245.4150607479L116.22363903874448,256.73403490815L119.34036292300148,250.95075840855L122.35654732712113,248.63063115075L125.47327121137812,250.9576768614L128.58999509563512,245.18380492665L131.50564001961746,254.79608009474998L134.62236390387446,252.06705980430002L137.6385483079941,254.2042431474L140.7552721922511,260.65873741995L143.77145659637077,257.8121374482L146.88818048062777,259.2705468072L150.00490436488474,260.60011960005L153.02108876900442,269.13394664595L156.1378126532614,274.52690405475L159.15399705738108,273.588814086L162.27072094163807,274.61880679875003L165.38744482589505,279.4038782886L168.20255026974007,279.20080675665L171.31927415399707,279.1617017073L174.33545855811673,278.7176724138L177.45218244237373,279.88301295179997L180.46836684649338,278.9097438678L183.58509073075038,280.81132307985L186.70181461500735,281.7461082462L189.71799901912703,282.382454982L192.834722903384,284.55917286945L195.85090730750366,282.9073742472L198.9676311917607,283.5221421216L202.08435507601766,284.31528662430003L204.89946051986269,287.6241779433L208.01618440411966,287.32491742005L211.03236880823934,287.0282552298L214.14909269249634,287.95985392515L217.165277096616,287.84803290045L220.28200098087297,288.84098711535L223.39872486512996,290.36180753655L226.41490926924965,288.4832530914L229.53163315350662,289.4875557819L232.54781755762627,289.5943064157L235.66454144188327,289.88883739695L238.78126532614024,289.11711883155L241.59637076998527,292.8834252339L244.71309465424227,292.24090153335L247.72927905836195,288.26164390965L250.84600294261895,290.7202474602L253.8621873467386,292.924528302L256.9789112309956,292.87281004665L260.09563511525255,291.88284235815L263.11181951937226,293.46412260555L266.22854340362926,291.89946333945L269.2447278077489,293.9820683079L272.36145169200586,294.683502243L275.47817557626286,294.805983507L278.3938205002452,295.2956755062L281.5105443845022,295.48457868825L284.5267287886219,295.0701313572L287.6434526728788,293.87011175475L290.65963707699854,293.95027294785L293.77636096125553,295.2684006642L296.89308484551253,294.01917382515L299.9092692496322,293.37387413235L303.02599313388913,295.1769873396L306.04217753800884,293.11602292185L309.15890142226584,294.8765242341L312.2756253065228,295.1745214734L315.0907307503678,295.7311471482L318.2074546346248,295.26872514675L321.22363903874447,296.3587322994L324.34036292300146,294.9205632531L327.3565473271212,295.21421294805L330.4732712113781,296.3413181466L333.5899950956351,296.08848711375L336.6061794997548,297.33789243915L339.7229033840118,297.67713346365L342.7390877881314,298.1317464711L345.8558116723884,297.4574994351L348.9725355566454,297.43547591655L351.78764100049045,298.16557571805L354.90436488474745,297.9552636471L357.9205492888671,297.83678546325L361.03727317312405,297.65037593985L364.05345757724376,298.19973469785L367.17018146150076,297.5220159354L370.28690534575776,297.2833279929L373.3030897498774,297.18128120175L376.41981363413436,296.8485692505L379.43599803825407,297.72388404345L382.55272192251107,296.22950340525L385.669445806768,297.6799110039L388.48455125061304,297.41832772185L391.60127513487004,298.06618685685L394.6174595389897,298.2145589961L397.7341834232467,298.00858521045L400.75036782736635,298.38634793745L403.86709171162335,297.72990970095L406.98381559588034,298.9633985451L410,298.6529745492" data-legend="zend-framework" style="stroke: rgb(148, 103, 189); fill: none;"></path></g></g><g transform="translate(20, 150)"><text transform="rotate(-90)" x="-50" y="0" dy="1em" class="axis-label y-axis-label" style="text-anchor: middle; font-weight: bold;">% of Stack Overflow questions that month</text></g><g class="legend" transform="translate(530, 30)" style="font-size: 12px;"><text class="legend-title" style="font-weight: bold;">Tag</text><g class="legend-items" transform="translate(0,20)"><text y="0em" x="1em">laravel</text><text y="1em" x="1em">symfony</text><text y="2em" x="1em">zend-framework</text><text y="3em" x="1em">codeigniter</text><text y="4em" x="1em">cakephp</text><circle cy="-0.25em" cx="0" r="0.4em" style="fill: rgb(31, 119, 180);"></circle><circle cy="0.75em" cx="0" r="0.4em" style="fill: rgb(255, 127, 14);"></circle><circle cy="1.75em" cx="0" r="0.4em" style="fill: rgb(148, 103, 189);"></circle><circle cy="2.75em" cx="0" r="0.4em" style="fill: rgb(44, 160, 44);"></circle><circle cy="3.75em" cx="0" r="0.4em" style="fill: rgb(214, 39, 40);"></circle></g><rect class="legend-box"></rect></g></svg>
        